<?xml version="1.0" encoding="utf-8"?>
<!-- Generator: Adobe Illustrator 18.1.1, SVG Export Plug-In . SVG Version: 6.00 Build 0)  -->
<svg version="1.1" id="Layer_1" xmlns="http://www.w3.org/2000/svg" xmlns:xlink="http://www.w3.org/1999/xlink" x="0px" y="0px"
	 viewBox="0 214 960 132" enable-background="new 0 214 960 132" xml:space="preserve">
<g>
	<path fill="#444444" d="M486.7,331.9h-9.5V317h-15.6v7.5h-12v-74.8H433v58.5h-11.2v6.2h-66.7v-16l-7.5-7.6h-7.4v-5.9l-14.7-14.6
		l-15.6,15.3v28.8h-10.7l0.1-13.4l0.7-0.2c2-0.7,3.7-3.2,3.7-5.4c0-2.3-2.2-4.2-4.7-4.2s-4.7,1.9-4.7,4.2c0,1.9,1.4,4.4,3.6,5.3
		l0.6,0.3v0.9l0.3,12.7H283v-11.7l-7-4.9l-7.2,5.3v11.3h-7v-22l-12.9-9.2l-13.7,9.9V310l-1.3-0.4c-0.2-0.1-0.6-0.1-0.9-0.1
		c-1.9,0-3.8,1.4-4.4,3.3l-0.3,0.9l-0.9-0.2c-0.4-0.1-0.9-0.2-1.3-0.2c-1.7,0-2.9,1.1-3,2.6l0.5,2.2H-10.5v-2h231.6V316
		c0-2.7,2.1-4.7,5-4.7c0.3,0,0.6,0,0.9,0.1c1.1-2.3,3.5-3.8,6-3.8c0.1,0,0.2,0,0.2,0V292l15.7-11.3l14.9,10.7v21.1h3v-10.3l9.2-6.7
		l9,6.3v10.7h11.7l-0.2-10.3c-2.4-1.3-4.2-4.2-4.2-6.9c0-3.4,3-6.2,6.7-6.2s6.7,2.8,6.7,6.2c0,2.8-1.9,5.8-4.4,7l-0.1,10h6.7v-27.7
		l17.6-17.3l16.7,16.6v4.8h6.3l8.7,8.8v14.8h62.7v-6.2H431v-58.5h20.7v74.8h8v-7.5h19.6v14.9h5.5v-60.2l11.7-11.7l11.5,11.5v52.8
		h5.5v-32.4h3.7v-13.7h24.4v16.2h24.9v24.9h17.9v-89.6h33.1v52.3H641v19.9h5.5v-41.1h3.7v-17.4h31.9v17.4h5V306h21.2v9.8l2.2,0.2
		h257.6v2H710.4l-4.1-0.3v-9.6h-21.2v-47.3h-5v-17.4h-27.9v17.4h-3.7v41.1H639V282h-23.7v-52.3h-29.1v89.6h-21.9v-24.9h-24.9v-16.2
		H519v13.7h-3.7v32.4h-9.5v-54l-9.5-9.5l-9.7,9.7v61.4H486.7z"/>
</g>
</svg>
